Coordinates
version=1
nRows=31
nColumns=38
inDegrees=no

Units are S.I. units (second, meters, Newtons, ...)
If the header above contains a line with 'inDegrees', this indicates whether rotational values are in degrees (yes) or radians (no).

endheader
time	pelvis_tilt	pelvis_list	pelvis_rotation	pelvis_tx	pelvis_ty	pelvis_tz	hip_flexion_r	hip_adduction_r	hip_rotation_r	knee_angle_r	ankle_angle_r	subtalar_angle_r	mtp_angle_r	hip_flexion_l	hip_adduction_l	hip_rotation_l	knee_angle_l	ankle_angle_l	subtalar_angle_l	mtp_angle_l	lumbar_extension	lumbar_bending	lumbar_rotation	arm_flex_r	arm_add_r	arm_rot_r	elbow_flex_r	pro_sup_r	wrist_flex_r	wrist_dev_r	arm_flex_l	arm_add_l	arm_rot_l	elbow_flex_l	pro_sup_l	wrist_flex_l	wrist_dev_l
15	0.251767	1.44773	1.38532	0.6814	0.563075	0.830048	0.759353	-0.150847	-0.0178195	1.18111	-0.0787126	0	0	0.66675	-0.281352	-0.257807	1.07304	-0.138318	0	0	-0.464992	0.162332	-0.0188728	0.285095	-0.47632	0.313949	0.635945	0.983125	0	0	0.0873947	-0.34267	0.0347789	0.797746	1.57017	0	0
15.01	0.245995	1.44224	1.38902	0.681659	0.560958	0.827061	0.774424	-0.149928	-0.0151504	1.19266	-0.0760227	0	0	0.682541	-0.284059	-0.255411	1.08663	-0.135321	0	0	-0.470531	0.163765	-0.0148186	0.289649	-0.4766	0.303862	0.639843	0.987768	0	0	0.0917141	-0.342201	0.0350341	0.796162	1.5708	0	0
15.02	0.243735	1.43813	1.38996	0.681786	0.558923	0.824258	0.787921	-0.150023	-0.0135514	1.20366	-0.0742543	0	0	0.696402	-0.286387	-0.253235	1.09941	-0.132586	0	0	-0.477415	0.165854	-0.0113187	0.29495	-0.477442	0.296808	0.642988	0.991682	0	0	0.0960577	-0.342177	0.0367763	0.794994	1.5708	0	0
15.03	0.240907	1.43377	1.39151	0.681817	0.556862	0.821468	0.802133	-0.150303	-0.0113303	1.21381	-0.0741166	0	0	0.710327	-0.288276	-0.251035	1.11157	-0.129599	0	0	-0.484207	0.168142	-0.00757017	0.300309	-0.478697	0.29059	0.64598	0.997027	0	0	0.100459	-0.341998	0.0387309	0.794474	1.5708	0	0
15.04	0.237057	1.42891	1.39409	0.681783	0.554785	0.818688	0.816974	-0.150699	-0.00845849	1.22236	-0.075864	0	0	0.724698	-0.289806	-0.248683	1.12317	-0.12674	0	0	-0.490508	0.170411	-0.00398054	0.305896	-0.480076	0.283808	0.648888	1.00248	0	0	0.104643	-0.341542	0.0398467	0.794423	1.5708	0	0
15.05	0.235226	1.42355	1.39515	0.681723	0.552773	0.81596	0.831467	-0.151122	-0.00704848	1.2307	-0.0775972	0	0	0.739702	-0.291302	-0.245597	1.13441	-0.124315	0	0	-0.496252	0.173219	-0.000665134	0.311425	-0.481441	0.276699	0.651687	1.00869	0	0	0.108788	-0.340783	0.0403967	0.794436	1.5708	0	0
15.06	0.23386	1.4182	1.39569	0.681665	0.550797	0.813288	0.845609	-0.151383	-0.00635773	1.2392	-0.0787385	0	0	0.754596	-0.292738	-0.242279	1.14527	-0.122231	0	0	-0.501967	0.176085	0.00274091	0.316675	-0.482691	0.2697	0.65497	1.01544	0	0	0.11295	-0.339985	0.0409875	0.794396	1.5708	0	0
15.07	0.230552	1.41232	1.39759	0.681615	0.548851	0.810608	0.859958	-0.151067	-0.00541384	1.2471	-0.079093	0	0	0.769772	-0.293915	-0.238837	1.15564	-0.120239	0	0	-0.506807	0.178407	0.00632282	0.321179	-0.483686	0.260976	0.659232	1.02079	0	0	0.116581	-0.339103	0.0410886	0.79492	1.5708	0	0
15.08	0.225722	1.40589	1.40049	0.681566	0.546943	0.807927	0.874518	-0.150201	-0.00404207	1.25586	-0.07792	0	0	0.785154	-0.294817	-0.235237	1.16551	-0.118191	0	0	-0.510768	0.180089	0.0102635	0.325374	-0.484841	0.252574	0.663594	1.02532	0	0	0.119914	-0.337865	0.0402868	0.795879	1.5708	0	0
15.09	0.223062	1.40059	1.40134	0.681462	0.545184	0.805434	0.88793	-0.150709	-0.00428531	1.26997	-0.0738883	0	0	0.798764	-0.29562	-0.231661	1.17499	-0.11599	0	0	-0.515511	0.181838	0.0140698	0.329761	-0.486346	0.245139	0.667929	1.03023	0	0	0.123161	-0.336164	0.0388965	0.796796	1.5708	0	0
15.1	0.220958	1.3957	1.40137	0.681282	0.543505	0.803097	0.900751	-0.152737	-0.00659147	1.29066	-0.0639174	0	0	0.811499	-0.296118	-0.228054	1.18416	-0.113252	0	0	-0.520702	0.183613	0.0180932	0.334007	-0.487525	0.236523	0.672278	1.0361	0	0	0.126425	-0.334111	0.0374408	0.797473	1.5708	0	0
15.11	0.219978	1.39225	1.40034	0.68122	0.541947	0.800916	0.911741	-0.152644	-0.00584159	1.30296	-0.0590423	0	0	0.822345	-0.296883	-0.224828	1.19322	-0.110973	0	0	-0.526913	0.185141	0.0218076	0.33936	-0.488331	0.230593	0.675039	1.03918	0	0	0.129759	-0.332898	0.037194	0.79806	1.5708	0	0
15.12	0.215747	1.38842	1.40184	0.681255	0.540393	0.798662	0.923599	-0.150735	-0.00174417	1.30972	-0.0580294	0	0	0.833465	-0.297537	-0.221872	1.2022	-0.10849	0	0	-0.532432	0.185656	0.0258753	0.34486	-0.489175	0.226117	0.677088	1.0419	0	0	0.132896	-0.332016	0.0374091	0.799192	1.5708	0	0
15.13	0.209422	1.38368	1.40499	0.681307	0.538831	0.796305	0.936325	-0.148483	0.00274695	1.31521	-0.0585955	0	0	0.845519	-0.298021	-0.218586	1.2109	-0.106	0	0	-0.536815	0.185675	0.0301163	0.350417	-0.490133	0.222672	0.678601	1.04497	0	0	0.135793	-0.331204	0.0378384	0.800606	1.5708	0	0
15.14	0.203684	1.37911	1.40792	0.681356	0.537368	0.793951	0.948944	-0.147131	0.00575464	1.32274	-0.059064	0	0	0.857361	-0.298531	-0.215127	1.21958	-0.103643	0	0	-0.541002	0.185806	0.0340952	0.35595	-0.491179	0.219857	0.679881	1.04853	0	0	0.138589	-0.330475	0.0386388	0.802252	1.5708	0	0
15.15	0.198783	1.37534	1.41085	0.681408	0.536038	0.79165	0.960661	-0.146807	0.00749319	1.33045	-0.0598156	0	0	0.868309	-0.298874	-0.211647	1.22826	-0.10139	0	0	-0.54546	0.186104	0.0372712	0.360819	-0.491816	0.215955	0.681845	1.05067	0	0	0.141168	-0.33005	0.0396127	0.804093	1.5708	0	0
15.16	0.191114	1.37153	1.41669	0.681494	0.53478	0.789262	0.97223	-0.146264	0.0115803	1.33194	-0.0637955	0	0	0.879189	-0.298735	-0.208722	1.23691	-0.0990039	0	0	-0.549179	0.185893	0.0399042	0.364861	-0.492164	0.210975	0.684666	1.05235	0	0	0.14333	-0.329897	0.0406055	0.806014	1.5708	0	0
15.17	0.177191	1.36406	1.42847	0.681666	0.53355	0.786394	0.987983	-0.144505	0.0200604	1.32565	-0.0805548	0	0	0.894353	-0.298052	-0.205719	1.24618	-0.0945676	0	0	-0.548158	0.184768	0.0435398	0.363525	-0.489259	0.190144	0.690027	1.06775	0	0	0.146142	-0.329427	0.043361	0.80625	1.5708	0	0
15.18	0.171104	1.36199	1.43245	0.681661	0.532395	0.784236	0.996182	-0.14377	0.0241186	1.32576	-0.0793173	0	0	0.90239	-0.298412	-0.204175	1.25416	-0.0940667	0	0	-0.55337	0.184288	0.0449076	0.370815	-0.491995	0.198366	0.691804	1.05551	0	0	0.146874	-0.329277	0.0422214	0.809426	1.5708	0	0
15.19	0.164773	1.35732	1.43696	0.681588	0.531324	0.781881	1.00782	-0.143795	0.0263969	1.33232	-0.081909	0	0	0.91344	-0.298412	-0.201906	1.26227	-0.0916117	0	0	-0.555522	0.184253	0.0474567	0.374287	-0.492481	0.193815	0.69467	1.0588	0	0	0.148757	-0.328243	0.0427211	0.810559	1.5708	0	0
15.2	0.162318	1.35338	1.43854	0.681512	0.530418	0.779681	1.01819	-0.144201	0.0272382	1.33945	-0.0829592	0	0	0.923635	-0.298639	-0.199275	1.27019	-0.0892417	0	0	-0.558121	0.18517	0.0493234	0.377719	-0.492197	0.188107	0.697182	1.06068	0	0	0.150646	-0.327195	0.0432178	0.81107	1.5708	0	0
15.21	0.154553	1.34831	1.44369	0.681738	0.529559	0.777344	1.03074	-0.143066	0.0307942	1.34708	-0.0834591	0	0	0.934278	-0.29996	-0.198924	1.27803	-0.0868725	0	0	-0.559075	0.183966	0.0518969	0.381229	-0.491352	0.183473	0.698493	1.06277	0	0	0.152358	-0.32673	0.0442417	0.811151	1.5708	0	0
15.22	0.160149	1.34489	1.43742	0.681062	0.528554	0.775579	1.03905	-0.144169	0.0278861	1.3567	-0.0798021	0	0	0.943733	-0.299334	-0.194063	1.28496	-0.0822929	0	0	-0.562878	0.187027	0.055782	0.387019	-0.4986	0.194901	0.701373	1.04084	0	0	0.156844	-0.324612	0.0491208	0.809626	1.5708	0	0
15.23	0.16129	1.34475	1.4355	0.68029	0.527883	0.774321	1.04361	-0.148303	0.0218831	1.37415	-0.073227	0	0	0.947622	-0.298227	-0.192512	1.29021	-0.0810252	0	0	-0.570729	0.188964	0.0566734	0.393949	-0.499503	0.192545	0.702296	1.05029	0	0	0.158532	-0.321033	0.0451593	0.810794	1.5708	0	0
15.24	0.159371	1.34211	1.43531	0.680065	0.527038	0.772574	1.05184	-0.148266	0.0219773	1.38455	-0.0679732	0	0	0.955065	-0.298699	-0.190774	1.29641	-0.0790483	0	0	-0.575075	0.189244	0.0588104	0.399084	-0.499514	0.189098	0.703707	1.05685	0	0	0.160222	-0.319348	0.0440836	0.812306	1.5708	0	0
15.25	0.157718	1.33857	1.43563	0.679944	0.526293	0.770646	1.06085	-0.147343	0.0241171	1.38998	-0.0661948	0	0	0.963917	-0.29912	-0.188415	1.303	-0.0769395	0	0	-0.577807	0.189792	0.0608318	0.402382	-0.498972	0.183403	0.705794	1.06056	0	0	0.16198	-0.318128	0.0442156	0.813563	1.5708	0	0
15.26	0.156015	1.33538	1.43615	0.679851	0.525584	0.768736	1.06944	-0.146585	0.0262723	1.39495	-0.0660455	0	0	0.972276	-0.299539	-0.186323	1.30956	-0.0749336	0	0	-0.580706	0.190206	0.0632974	0.404954	-0.498831	0.177761	0.708157	1.06376	0	0	0.164024	-0.317231	0.0455892	0.814943	1.5708	0	0
15.27	0.155216	1.33277	1.43536	0.679861	0.524917	0.766951	1.07715	-0.145303	0.0283525	1.40023	-0.0660518	0	0	0.97955	-0.300869	-0.184841	1.31598	-0.0729954	0	0	-0.584318	0.190305	0.0664816	0.407319	-0.49889	0.172308	0.71056	1.06656	0	0	0.166378	-0.316344	0.047233	0.816432	1.5708	0	0
15.28	0.149029	1.33137	1.43569	0.680527	0.524267	0.76534	1.08468	-0.139698	0.0346379	1.40534	-0.0662049	0	0	0.983446	-0.306502	-0.188891	1.32203	-0.0709406	0	0	-0.589401	0.186314	0.0724285	0.40965	-0.498098	0.165912	0.712758	1.06891	0	0	0.169155	-0.316148	0.0488962	0.818119	1.5708	0	0
15.29	0.148205	1.33157	1.43096	0.68073	0.523384	0.76414	1.08945	-0.134465	0.0393026	1.40821	-0.0672801	0	0	0.985701	-0.311018	-0.191122	1.32723	-0.0690599	0	0	-0.596908	0.184064	0.0786244	0.413695	-0.498899	0.161662	0.715223	1.07102	0	0	0.172783	-0.314967	0.0501705	0.819945	1.5708	0	0
15.3	0.148108	1.32732	1.43665	0.67956	0.523005	0.762435	1.09672	-0.141899	0.035415	1.41309	-0.0674952	0	0	0.995971	-0.303438	-0.183272	1.33233	-0.066785	0	0	-0.59749	0.188737	0.0761178	0.414705	-0.500011	0.155946	0.717906	1.07447	0	0	0.175007	-0.312579	0.0515725	0.820249	1.5708	0	0
